<?xml version="1.0" encoding="utf-8"?>
<!-- Generator: Adobe Illustrator 21.0.0, SVG Export Plug-In . SVG Version: 6.00 Build 0)  -->
<svg version="1.1" id="Layer_1" xmlns="http://www.w3.org/2000/svg" xmlns:xlink="http://www.w3.org/1999/xlink" x="0px" y="0px"
	 viewBox="0 0 442 117" style="enable-background:new 0 0 442 117;" xml:space="preserve">
<style type="text/css">
	.st0{opacity:0.9;fill:#1A1E2A;enable-background:new    ;}
	.st1{fill:#FFFFFF;}
	.st2{fill:#FAB909;}
	.st3{fill:#EA4235;}
	.st4{fill:#0167D6;}
	.st5{fill:#34A853;}
</style>
<path class="st0" d="M383.5,117h-325C26.3,117,0,90.7,0,58.5l0,0C0,26.3,26.3,0,58.5,0h325C415.7,0,442,26.3,442,58.5l0,0
	C442,90.7,415.7,117,383.5,117z"/>
<rect x="323" y="16" class="st1" width="2" height="86"/>
<path class="st1" d="M380.9,41.2l-13.7,8.5h-6.1c-1.3,0-2.4,1.1-2.4,2.4v9.8c0,1.3,1.1,2.4,2.4,2.4h6.1l13.7,8.5
	c0.4,0.3,0.9,0,0.9-0.5V41.6C381.8,41.2,381.3,40.9,380.9,41.2z"/>
<g>
	<path class="st1" d="M392.2,71.8l-0.7-1c-0.2-0.2-0.2-0.6,0.1-0.9c3.8-3.2,6-7.9,6-13s-2.2-9.8-6.1-13c-0.2-0.2-0.3-0.6-0.1-0.9
		l0.7-1c0.2-0.2,0.6-0.3,0.9-0.1c4.5,3.8,7.1,9.1,7.1,14.9s-2.6,11.2-7,14.9C392.8,72.1,392.4,72.1,392.2,71.8z"/>
</g>
<g>
	<path class="st1" d="M386.4,65.7c-0.2-0.2-0.2-0.7,0.1-0.9c2.4-1.9,3.8-4.8,3.8-7.7c0-3.1-1.4-6-3.8-7.7c-0.2-0.2-0.3-0.6-0.1-0.9
		l0.8-0.9c0.2-0.2,0.5-0.3,0.9-0.1c3,2.1,4.8,5.7,4.8,9.6c0,3.7-1.8,7.3-4.7,9.6c-0.2,0.2-0.6,0.2-0.9-0.1L386.4,65.7z"/>
</g>
<path class="st1" d="M378,86.4c-16.2,0-29.4-13.2-29.4-29.4s13.2-29.4,29.4-29.4s29.4,13.2,29.4,29.4S394.2,86.4,378,86.4z
	 M378,30.4c-14.7,0-26.6,11.9-26.6,26.6s11.9,26.6,26.6,26.6s26.6-11.9,26.6-26.6S392.7,30.4,378,30.4z"/>
<g>
	<path class="st1" d="M137.4,96.8h-3.1V68.6h4.6c2.4,0,5,0.1,7,1.5c2.1,1.4,3.2,3.9,3.2,6.5c0,2.3-1,4.6-2.7,6
		c-1.9,1.6-4.3,1.9-6.7,1.9h-2.3V96.8L137.4,96.8z M137.4,81.5h2.1c3.5,0,6.5-1.1,6.5-5c0-4.6-3.7-5-7.3-5h-1.2L137.4,81.5
		L137.4,81.5z"/>
	<path class="st1" d="M151.4,88c0-5.1,4.1-9.3,9.2-9.3c5.1,0,9.2,4.2,9.2,9.3c0,5.1-4.1,9.2-9.2,9.2S151.4,93.2,151.4,88z M154.4,88
		c0,3.6,2.6,6.5,6.2,6.5c3.6,0,6.2-2.9,6.2-6.5c0-3.5-2.6-6.5-6.2-6.5S154.4,84.4,154.4,88z"/>
	<path class="st1" d="M187,94.3L187,94.3c-1.5,1.9-3.7,2.9-6.1,2.9c-5.1,0-8.4-4.3-8.4-9.2c0-5,3.2-9.3,8.4-9.3c2.4,0,4.6,1.2,6,3
		h0.1V65.9h3v30.8h-3V94.3L187,94.3z M175.6,87.8c0,3.5,2,6.7,5.8,6.7s5.8-3.1,5.8-6.6s-2.2-6.4-5.9-6.4
		C177.8,81.5,175.6,84.5,175.6,87.8z"/>
	<path class="st1" d="M208.6,84.4L208.6,84.4c-1.4-1.8-3.2-2.9-5.5-2.9c-3.6,0-6.2,3-6.2,6.5s2.4,6.5,6,6.5c2.5,0,4.2-1.2,5.8-3h0.1
		v4c-1.7,1.2-3.5,1.8-5.6,1.8c-5.3,0-9.4-4-9.4-9.3c0-5.2,4.2-9.3,9.4-9.3c1.9,0,3.8,0.6,5.4,1.8V84.4L208.6,84.4z"/>
	<path class="st1" d="M229.3,96.8h-3v-2.4h-0.1c-1.5,1.9-3.6,2.9-6,2.9c-5.1,0-8.4-4.3-8.4-9.2c0-5,3.2-9.3,8.4-9.3
		c2.4,0,4.5,1.2,6,3h0.1v-2.7h3V96.8z M214.9,87.8c0,3.5,2,6.7,5.8,6.7s5.8-3.1,5.8-6.6s-2.2-6.4-5.9-6.4
		C217.1,81.5,214.9,84.5,214.9,87.8z"/>
	<path class="st1" d="M242,83.3c-0.4-1-1.3-1.8-2.4-1.8s-2.1,0.8-2.1,1.9c0,1.6,2,2.2,4.1,3.1c2,0.9,4.1,2.1,4.1,5
		c0,3.4-2.7,5.8-5.9,5.8c-2.9,0-5.3-1.7-6.2-4.4l2.7-1.2c0.7,1.7,1.6,2.8,3.6,2.8c1.6,0,2.8-1.1,2.8-2.7c0-3.9-7.9-2.6-7.9-8.1
		c0-2.9,2.4-5,5.2-5c2,0,3.9,1.4,4.7,3.3L242,83.3z"/>
	<path class="st1" d="M253,96.8h-3V81.9h-1.9v-2.7h1.9v-6.3h3v6.3h3.1v2.7H253V96.8z"/>
	<path class="st1" d="M265.9,83.3c-0.4-1-1.3-1.8-2.4-1.8s-2.1,0.8-2.1,1.9c0,1.6,2,2.2,4.1,3.1s4.1,2.1,4.1,5
		c0,3.4-2.7,5.8-5.9,5.8c-2.9,0-5.3-1.7-6.2-4.4l2.7-1.2c0.7,1.7,1.6,2.8,3.6,2.8c1.6,0,2.8-1.1,2.8-2.7c0-3.9-7.9-2.6-7.9-8.1
		c0-2.9,2.4-5,5.2-5c2,0,3.9,1.4,4.7,3.3L265.9,83.3z"/>
</g>
<g>
	<path class="st2" d="M66,33.2L66,33.2c-3,0-5.4-2.4-5.4-5.4v-6.4c0-3,2.4-5.4,5.4-5.4l0,0c3,0,5.4,2.4,5.4,5.4v6.4
		C71.4,30.8,69,33.2,66,33.2z"/>
	<path class="st2" d="M66,80.9L66,80.9c-3,0-5.4-2.4-5.4-5.4v-32c0-3,2.4-5.4,5.4-5.4l0,0c3,0,5.4,2.4,5.4,5.4v31.9
		C71.4,78.5,69,80.9,66,80.9z"/>
	<path class="st3" d="M46.8,63.7L46.8,63.7c-3,0-5.4-2.4-5.4-5.4V38.6c0-3,2.4-5.4,5.4-5.4l0,0c3,0,5.4,2.4,5.4,5.4v19.7
		C52.2,61.3,49.8,63.7,46.8,63.7z"/>
	<path class="st3" d="M46.8,85.8L46.8,85.8c-3,0-5.4-2.4-5.4-5.4V74c0-3,2.4-5.4,5.4-5.4l0,0c3,0,5.4,2.4,5.4,5.4v6.4
		C52.2,83.4,49.8,85.8,46.8,85.8z"/>
	<path class="st4" d="M28.2,68.1L28.2,68.1c-3,0-5.4-2.4-5.4-5.4v-6.4c0-3,2.4-5.4,5.4-5.4l0,0c3,0,5.4,2.4,5.4,5.4v6.4
		C33.6,65.7,31.1,68.1,28.2,68.1z"/>
	<path class="st4" d="M103.8,68.1L103.8,68.1c-3,0-5.4-2.4-5.4-5.4v-6.4c0-3,2.4-5.4,5.4-5.4l0,0c3,0,5.4,2.4,5.4,5.4v6.4
		C109.3,65.7,106.8,68.1,103.8,68.1z"/>
	<path class="st5" d="M85.2,50.4L85.2,50.4c-3,0-5.4-2.4-5.4-5.4v-6.4c0-3,2.4-5.4,5.4-5.4l0,0c3,0,5.4,2.4,5.4,5.4V45
		C90.6,48,88.2,50.4,85.2,50.4z"/>
	<path class="st5" d="M85.2,85.8L85.2,85.8c-3,0-5.4-2.4-5.4-5.4V60.7c0-3,2.4-5.4,5.4-5.4l0,0c3,0,5.4,2.4,5.4,5.4v19.7
		C90.6,83.4,88.2,85.8,85.2,85.8z"/>
	<path class="st2" d="M66,103L66,103c-3,0-5.4-2.4-5.4-5.4v-6.4c0-3,2.4-5.4,5.4-5.4l0,0c3,0,5.4,2.4,5.4,5.4v6.4
		C71.4,100.6,69,103,66,103z"/>
</g>
<path class="st1" d="M159.8,37.3c0.1,3.8-0.3,6.9-2.9,9.9c-2.6,3-6.5,4.7-10.4,4.7c-7.9,0-14.4-6.5-14.4-14.4
	c0-8,6.5-14.6,14.6-14.6c4.9,0,8.9,2.2,11.9,6.1l-2.3,2.1c-2.3-3.3-5.5-5.3-9.6-5.3c-6.4,0-11.5,5.4-11.5,11.7c0,3,1.2,5.8,3.3,7.9
	c2,2,5,3.6,8,3.6c4.9,0,10-3.6,10-8.8h-8.3v-2.9H159.8z"/>
<path class="st1" d="M162.7,42.6c0-5.1,4.1-9.3,9.2-9.3c5.1,0,9.2,4.1,9.2,9.3s-4.1,9.2-9.2,9.2S162.7,47.8,162.7,42.6z M165.7,42.6
	c0,3.6,2.5,6.5,6.2,6.5s6.2-2.9,6.2-6.5c0-3.5-2.5-6.5-6.2-6.5S165.7,39.1,165.7,42.6z"/>
<path class="st1" d="M183.6,42.6c0-5.1,4.1-9.3,9.2-9.3c5.1,0,9.2,4.1,9.2,9.3s-4.1,9.2-9.2,9.2C187.7,51.8,183.6,47.8,183.6,42.6z
	 M186.6,42.6c0,3.6,2.5,6.5,6.2,6.5s6.2-2.9,6.2-6.5c0-3.5-2.5-6.5-6.2-6.5S186.6,39.1,186.6,42.6z"/>
<path class="st1" d="M221.8,50.5c0,2.8,0,5.2-1.8,7.5c-1.6,2.1-4.2,3.1-6.8,3.1c-4.9,0-8.5-3.1-8.6-8h3c0,3.2,2.4,5.3,5.6,5.3
	c4.6,0,5.6-3.4,5.6-7.3V49h-0.1c-1.4,1.8-3.7,2.9-6.1,2.9c-5.1,0-8.3-4.3-8.3-9.1c0-4.9,3.3-9.3,8.4-9.3c2.4,0,4.5,1.1,6,3h0.1V34h3
	L221.8,50.5L221.8,50.5z M207.4,42.4c0,3.4,2,6.7,5.7,6.7c3.8,0,5.8-3.1,5.8-6.6s-2.2-6.3-5.9-6.3C209.7,36.1,207.4,39.2,207.4,42.4
	z"/>
<path class="st1" d="M230.5,51.4h-3V20.7h3V51.4z"/>
<path class="st1" d="M237.5,43.2c0,3.2,2.3,5.8,5.7,5.8c2.5,0,4.2-1.5,5.3-3.6l2.5,1.4c-1.7,3.1-4.5,4.9-8.1,4.9c-5.2,0-8.6-4-8.6-9
	c0-5.2,3-9.4,8.5-9.4c5.6,0,8.6,4.6,8.3,9.9C251.1,43.2,237.5,43.2,237.5,43.2z M248.1,40.7c-0.4-2.5-2.5-4.6-5.1-4.6
	s-4.9,2-5.3,4.6H248.1z"/>
</svg>
