<?xml version="1.0" encoding="utf-8"?>
<!-- Generator: Adobe Illustrator 21.0.0, SVG Export Plug-In . SVG Version: 6.00 Build 0)  -->
<svg version="1.1" id="Layer_1" xmlns="http://www.w3.org/2000/svg" xmlns:xlink="http://www.w3.org/1999/xlink" x="0px" y="0px"
	 viewBox="0 0 234.2 62" style="enable-background:new 0 0 234.2 62;" xml:space="preserve">
<style type="text/css">
	.st0{opacity:0.9;fill:#1A1E2A;enable-background:new    ;}
	.st1{fill:#53B95F;}
	.st2{fill:#FFFFFF;}
</style>
<title>icons-pc</title>
<path class="st0" d="M31,0h172.2c17.1,0,31,13.9,31,31l0,0c0,17.1-13.9,31-31,31H31C13.9,62,0,48.1,0,31l0,0C0,13.9,13.9,0,31,0z"/>
<circle class="st1" cx="31.5" cy="30.3" r="21.9"/>
<path class="st2" d="M67.8,20.1c2.6-0.1,5.1,0.8,7.2,2.5c0.2,0.1,0.2,0.3,0.1,0.5l-1.7,2.4c-0.1,0.2-0.3,0.2-0.5,0.1c0,0,0,0,0,0
	c-0.5-0.4-1-0.7-1.5-1c-1.1-0.6-2.3-0.9-3.5-1c-1.2,0-3,0.4-3,2.2c0,1.5,1.3,2,5.3,3c2.6,0.7,5.6,1.9,5.6,5.9c0,3.7-3.1,6-7.3,6
	c-3,0-6-1.1-8.2-3.2c-0.1-0.1-0.1-0.4,0-0.5l1.9-2.3c0.1-0.2,0.4-0.2,0.5,0c0,0,0,0,0,0c1.6,1.5,3.6,2.3,5.8,2.4
	c3.5,0,3.3-2.1,3.3-2.4c0-0.7-0.5-1.6-2.2-2.1s-6-1.3-7.6-3.2c-0.8-1-1.2-2.2-1.1-3.4C60.8,23.9,62.3,20.1,67.8,20.1z"/>
<path class="st2" d="M85.7,24.9c-1.8,0-3.6,0.8-4.8,2.3v-1.6c0-0.2-0.2-0.4-0.4-0.4l0,0h-3.2c-0.2,0-0.4,0.2-0.4,0.4v0v19.1
	c0,0.2,0.2,0.4,0.4,0.4l0,0h3.2c0.2,0,0.4-0.2,0.4-0.4c0,0,0,0,0,0v-5.9c1.2,1.4,3,2.2,4.9,2.1c2.7,0,7-2.1,7-7.9
	S88.8,24.9,85.7,24.9z M84.8,37.4c-2.2,0-4-1.9-4-4.6c0-1.6,1-4.5,3.9-4.5s4,2.4,4,4.5S87.7,37.4,84.8,37.4z"/>
<path class="st2" d="M102,24.9c-4.4,0-8.1,3.5-8.1,8c0,0,0,0,0,0c-0.1,4.5,3.5,8.2,8,8.3s8.2-3.5,8.3-8c0.1-4.5-3.5-8.2-8-8.3
	C102.1,24.9,102,24.9,102,24.9L102,24.9z M102,37.4c-2.4-0.1-4.3-2.1-4.3-4.5c0,0,0,0,0,0c-0.1-2.3,1.6-4.4,4-4.5c0.1,0,0.2,0,0.3,0
	c2.4,0.1,4.3,2.1,4.2,4.5c0,0,0,0,0,0c0.2,2.3-1.5,4.3-3.8,4.5C102.2,37.4,102.1,37.4,102,37.4L102,37.4z"/>
<path class="st2" d="M120.1,28.3v-2.7c0-0.2-0.2-0.4-0.4-0.4l0,0h-3.6v-3.7c0-0.2-0.2-0.4-0.4-0.4l0,0h-3.1c-0.2,0-0.4,0.2-0.4,0.4
	l0,0v3.7h-1.5c-0.2,0-0.4,0.2-0.4,0.4l0,0v2.7c0,0.2,0.2,0.4,0.4,0.4l0,0h1.5v7.7c0,1.7,0.8,4.5,4.2,4.5c1.2,0,2.4-0.3,3.4-0.8
	c0.1-0.1,0.2-0.2,0.2-0.3V37c0-0.2-0.1-0.3-0.3-0.3c-0.1,0-0.1,0-0.2,0.1c-0.5,0.4-1.2,0.5-1.8,0.5c-1.6,0-1.7-1.1-1.7-1.9v-6.7h3.6
	C120,28.6,120.1,28.5,120.1,28.3z"/>
<circle class="st2" cx="123.7" cy="20.9" r="2.4"/>
<path class="st2" d="M122.1,25.2h3.1c0.2,0,0.4,0.2,0.4,0.4v14.6c0,0.2-0.2,0.4-0.4,0.4h-3.1c-0.2,0-0.4-0.2-0.4-0.4V25.6
	C121.7,25.3,121.9,25.2,122.1,25.2z"/>
<path class="st2" d="M129,28.6h-1.5c-0.2,0-0.4-0.2-0.4-0.4l0,0v-2.7c0-0.2,0.2-0.4,0.4-0.4l0,0h1.5v-1c-0.2-2.5,1.7-4.6,4.1-4.8
	c0.2,0,0.4,0,0.6,0c1-0.1,2.1,0.1,3,0.5v2.8c0,0.3-0.1,0.5-0.4,0.4c-0.6-0.2-1.2-0.3-1.9-0.3c-0.9-0.1-1.6,0.6-1.7,1.5
	c0,0.1,0,0.1,0,0.2v0.8h5.7c0.2,0,0.3,0.1,0.3,0.2l4,10.3l3.6-10.2c0.1-0.1,0.2-0.2,0.4-0.2h3.5c0.1,0,0.2,0.1,0.2,0.2
	c0,0,0,0.1,0,0.1c-0.8,2.1-5.4,14.1-6,15.6c-0.7,1.7-1.8,3.9-5,3.9c-1.2,0-2.5-0.3-3.5-0.9c-0.2-0.1-0.2-0.3-0.1-0.5l1.1-2.4
	c0-0.1,0.2-0.1,0.2-0.1c0,0,0,0,0,0c0.6,0.4,1.2,0.6,1.9,0.6c1.3,0,1.8-1.5,1.8-1.5l-4.9-11.6h-3.2v11.5c0,0.2-0.2,0.4-0.4,0.4h-3.1
	c-0.2,0-0.4-0.2-0.4-0.4c0,0,0,0,0,0L129,28.6z"/>
<path class="st2" d="M152.4,26.2h1.2c0.3,0,0.5,0.1,0.7,0.3c0.1,0.2,0.2,0.4,0.2,0.6v0c0,0.4-0.2,0.7-0.5,0.8l0.6,0.9h-0.7l-0.5-0.8
	H153v0.8h-0.6L152.4,26.2z M153.5,27.5c0.3,0,0.4-0.1,0.4-0.4v0c0-0.2-0.2-0.4-0.4-0.4H153v0.7L153.5,27.5z"/>
<path class="st2" d="M153.4,30c-1.3,0-2.4-1.1-2.4-2.4s1.1-2.4,2.4-2.4c1.3,0,2.4,1.1,2.4,2.4C155.8,28.9,154.7,30,153.4,30z
	 M153.4,25.4c-1.2,0-2.1,1-2.1,2.1c0,1.2,1,2.1,2.1,2.1c1.2,0,2.1-1,2.1-2.1C155.5,26.4,154.6,25.4,153.4,25.4z"/>
<path d="M40.3,40.8c-0.3,0-0.5-0.1-0.7-0.2c-8.6-5.2-18.9-2.2-19-2.2c-0.8,0.2-1.6-0.2-1.8-1c-0.2-0.7,0.2-1.5,0.9-1.8
	c0.5-0.1,11.5-3.4,21.3,2.4c0.7,0.4,0.9,1.3,0.5,2C41.3,40.5,40.8,40.8,40.3,40.8L40.3,40.8z"/>
<path d="M42.8,34.8c-0.3,0-0.6-0.1-0.8-0.2C35.3,30.9,27.4,30,20.1,32c-0.9,0.3-1.9-0.2-2.2-1c-0.3-0.9,0.2-1.9,1-2.2c0,0,0,0,0,0
	c8.3-2.4,17.2-1.4,24.7,2.8c0.8,0.5,1.1,1.5,0.6,2.3C44,34.5,43.4,34.8,42.8,34.8L42.8,34.8z"/>
<path d="M45.5,28.1c-0.3,0-0.7-0.1-1-0.2C32,21.3,19.2,25.3,19,25.3c-1.1,0.4-2.3-0.2-2.6-1.3c-0.4-1.1,0.2-2.3,1.3-2.6c0,0,0,0,0,0
	c0.6-0.2,14.6-4.5,28.7,2.9c1,0.5,1.4,1.8,0.9,2.8C47,27.7,46.3,28.1,45.5,28.1L45.5,28.1z"/>
<rect x="171.2" y="8.5" class="st2" width="1.1" height="45.6"/>
<path class="st2" d="M201.8,21.8l-7.3,4.5h-3.2c-0.7,0-1.3,0.6-1.3,1.3v5.2c0,0.7,0.6,1.3,1.3,1.3h3.2l7.3,4.5
	c0.1,0.1,0.3,0.1,0.4-0.1c0-0.1,0.1-0.1,0.1-0.2V22.1c0-0.2-0.2-0.3-0.3-0.3C201.9,21.8,201.9,21.8,201.8,21.8z"/>
<path class="st2" d="M207.8,38.1l-0.4-0.5c-0.1-0.1-0.1-0.3,0.1-0.4c0,0,0,0,0,0c3.8-3.2,4.3-8.8,1.1-12.6c-0.3-0.4-0.7-0.8-1.1-1.1
	c-0.1-0.1-0.2-0.3-0.1-0.5l0.4-0.5c0.1-0.1,0.3-0.2,0.5-0.1c4.4,3.6,5,10,1.4,14.4c-0.4,0.5-0.9,1-1.4,1.4
	C208.2,38.2,208,38.2,207.8,38.1C207.8,38.1,207.8,38.1,207.8,38.1z"/>
<path class="st2" d="M204.8,34.8c-0.1-0.1-0.1-0.3,0-0.4c0,0,0,0,0,0c1.3-1,2-2.5,2-4.1c0-1.6-0.7-3.1-2-4.1
	c-0.1-0.1-0.2-0.3-0.1-0.5l0.4-0.5c0.1-0.1,0.3-0.2,0.5-0.1c1.6,1.2,2.5,3.1,2.5,5.1c0,2-0.9,3.9-2.5,5.1c-0.1,0.1-0.3,0.1-0.5,0
	L204.8,34.8z"/>
<path class="st2" d="M200.3,45.8c-8.6,0-15.6-7-15.6-15.6s7-15.6,15.6-15.6c8.6,0,15.6,7,15.6,15.6
	C215.9,38.8,208.9,45.8,200.3,45.8z M200.3,16.1c-7.8,0-14.1,6.3-14.1,14.1s6.3,14.1,14.1,14.1s14.1-6.3,14.1-14.1
	C214.4,22.4,208.1,16.1,200.3,16.1z"/>
</svg>
